<svg width="32" height="32" viewBox="0 0 32 32" fill="none" xmlns="http://www.w3.org/2000/svg">
<rect x="0.5" y="0.5" width="31" height="31" fill="black" stroke="black"/>
<g filter="url(#filter0_d_0_1)">
<path d="M6.38212 20H4.48724L7.37449 11.6364H9.65325L12.5364 20H10.6415L8.54654 13.5476H8.4812L6.38212 20ZM6.26369 16.7125H10.7395V18.0929H6.26369V16.7125ZM13.5431 20V11.6364H19.1787V13.0943H15.3114V15.0872H18.8888V16.5451H15.3114V18.5421H19.1951V20H13.5431ZM20.5846 20V11.6364H22.3529V15.324H22.4631L25.4729 11.6364H27.5924L24.4887 15.3812L27.6292 20H25.5137L23.2227 16.5614L22.3529 17.6232V20H20.5846Z" fill="white"/>
</g>
<defs>
<filter id="filter0_d_0_1" x="0.487238" y="11.6364" width="31.1419" height="16.3636" filterUnits="userSpaceOnUse" color-interpolation-filters="sRGB">
<feFlood flood-opacity="0" result="BackgroundImageFix"/>
<feColorMatrix in="SourceAlpha" type="matrix" values="0 0 0 0 0 0 0 0 0 0 0 0 0 0 0 0 0 0 127 0" result="hardAlpha"/>
<feOffset dy="4"/>
<feGaussianBlur stdDeviation="2"/>
<feComposite in2="hardAlpha" operator="out"/>
<feColorMatrix type="matrix" values="0 0 0 0 0 0 0 0 0 0 0 0 0 0 0 0 0 0 0.25 0"/>
<feBlend mode="normal" in2="BackgroundImageFix" result="effect1_dropShadow_0_1"/>
<feBlend mode="normal" in="SourceGraphic" in2="effect1_dropShadow_0_1" result="shape"/>
</filter>
</defs>
</svg>
